<mxfile host="app.diagrams.net" modified="2021-06-03T09:07:37.873Z" agent="5.0 (Windows NT 10.0; Win64; x64) AppleWebKit/537.36 (KHTML, like Gecko) Chrome/91.0.4472.77 Safari/537.36 Edg/91.0.864.37" etag="3tcoeVpbQhdmeiYCOUse" version="14.6.12" type="github">
  <diagram id="L8LT-1RBFV7QesphFF6v" name="第 1 页">
    <mxGraphModel dx="1529" dy="981" grid="1" gridSize="10" guides="1" tooltips="1" connect="1" arrows="1" fold="1" page="1" pageScale="1" pageWidth="827" pageHeight="1169" math="0" shadow="0">
      <root>
        <mxCell id="0" />
        <mxCell id="1" parent="0" />
        <mxCell id="MDP2hwWKjY6NF6i7BJ9W-1" value="" style="rounded=0;whiteSpace=wrap;html=1;fontSize=10;fillColor=none;" vertex="1" parent="1">
          <mxGeometry x="1020" y="320" width="620" height="680" as="geometry" />
        </mxCell>
        <mxCell id="MDP2hwWKjY6NF6i7BJ9W-2" value="" style="rounded=0;whiteSpace=wrap;html=1;fontSize=19;strokeColor=#009900;" vertex="1" parent="1">
          <mxGeometry x="1080" y="380" width="330" height="278" as="geometry" />
        </mxCell>
        <mxCell id="MDP2hwWKjY6NF6i7BJ9W-3" value="" style="rounded=0;whiteSpace=wrap;html=1;fontSize=19;strokeColor=#009900;" vertex="1" parent="1">
          <mxGeometry x="1060" y="399" width="330" height="271" as="geometry" />
        </mxCell>
        <mxCell id="MDP2hwWKjY6NF6i7BJ9W-4" value="" style="rounded=0;whiteSpace=wrap;html=1;fontSize=11;" vertex="1" parent="1">
          <mxGeometry x="40" y="142" width="240" height="838" as="geometry" />
        </mxCell>
        <mxCell id="MDP2hwWKjY6NF6i7BJ9W-5" value="" style="rounded=0;whiteSpace=wrap;html=1;fontSize=16;" vertex="1" parent="1">
          <mxGeometry x="320" y="140" width="500" height="190" as="geometry" />
        </mxCell>
        <mxCell id="MDP2hwWKjY6NF6i7BJ9W-6" value="" style="rounded=0;whiteSpace=wrap;html=1;fontSize=16;" vertex="1" parent="1">
          <mxGeometry x="320" y="400" width="500" height="580" as="geometry" />
        </mxCell>
        <mxCell id="MDP2hwWKjY6NF6i7BJ9W-7" value="" style="rounded=0;whiteSpace=wrap;html=1;" vertex="1" parent="1">
          <mxGeometry x="400" y="430" width="120" height="180" as="geometry" />
        </mxCell>
        <mxCell id="MDP2hwWKjY6NF6i7BJ9W-8" value="" style="rounded=0;whiteSpace=wrap;html=1;" vertex="1" parent="1">
          <mxGeometry x="70" y="410" width="180" height="360" as="geometry" />
        </mxCell>
        <mxCell id="MDP2hwWKjY6NF6i7BJ9W-9" value="通道数据 1" style="rounded=0;whiteSpace=wrap;html=1;fillColor=#dae8fc;strokeColor=#6c8ebf;" vertex="1" parent="1">
          <mxGeometry x="100" y="450" width="120" height="40" as="geometry" />
        </mxCell>
        <mxCell id="MDP2hwWKjY6NF6i7BJ9W-10" value="Flash" style="shape=cylinder;whiteSpace=wrap;html=1;boundedLbl=1;backgroundOutline=1;" vertex="1" parent="1">
          <mxGeometry x="423.5" y="500" width="70" height="105" as="geometry" />
        </mxCell>
        <mxCell id="MDP2hwWKjY6NF6i7BJ9W-11" value="&lt;h1&gt;&lt;font style=&quot;font-size: 17px&quot;&gt;数据保护模块特点&lt;/font&gt;&lt;/h1&gt;&lt;p&gt;为整个设备提供数据保护功能&lt;/p&gt;&lt;p&gt;队列特性，确保时间顺序，但不关心数据内容。&lt;/p&gt;&lt;p&gt;兼具磨损平衡与坏块管理，通过降低写入频率提高寿命，&lt;font color=&quot;#ff3333&quot;&gt;在RAM区足量或超时才将数据转移至FLASH中保护。但如果突然断电，当前硬件平台就会导致丢失一些数据，如果模块未断电，也会因为模块多工作的几秒钟而没有没记录数据导致数据丢失。&lt;/font&gt;&lt;/p&gt;&lt;p&gt;脱机能力：&lt;/p&gt;&lt;p&gt;&lt;span style=&quot;font-family: &amp;#34;helvetica neue&amp;#34; , &amp;#34;helvetica&amp;#34; , &amp;#34;arial&amp;#34; , sans-serif ; white-space: pre-wrap ; background-color: rgb(255 , 255 , 255)&quot;&gt;可为512个通道同时工作的情况下脱机2个小时，若减少到16个通道同时工作可脱机64个小时。如果隔壁启用了数据过滤，时间则更久。&lt;/span&gt;&lt;br&gt;&lt;/p&gt;" style="text;html=1;strokeColor=none;fillColor=none;spacing=5;spacingTop=-20;whiteSpace=wrap;overflow=hidden;rounded=0;" vertex="1" parent="1">
          <mxGeometry x="365" y="620" width="190" height="330" as="geometry" />
        </mxCell>
        <mxCell id="MDP2hwWKjY6NF6i7BJ9W-12" value="通道数据 2" style="rounded=0;whiteSpace=wrap;html=1;fillColor=#dae8fc;strokeColor=#6c8ebf;" vertex="1" parent="1">
          <mxGeometry x="100" y="500" width="120" height="40" as="geometry" />
        </mxCell>
        <mxCell id="MDP2hwWKjY6NF6i7BJ9W-13" value="通道数据&amp;nbsp; n" style="rounded=0;whiteSpace=wrap;html=1;fillColor=#dae8fc;strokeColor=#6c8ebf;" vertex="1" parent="1">
          <mxGeometry x="100" y="550" width="120" height="40" as="geometry" />
        </mxCell>
        <mxCell id="MDP2hwWKjY6NF6i7BJ9W-14" value="通道级别日志（单条）" style="rounded=0;whiteSpace=wrap;html=1;fillColor=#d5e8d4;strokeColor=#82b366;" vertex="1" parent="1">
          <mxGeometry x="100" y="650" width="120" height="40" as="geometry" />
        </mxCell>
        <mxCell id="MDP2hwWKjY6NF6i7BJ9W-15" value="库位日志或者系统日志（单条）" style="rounded=0;whiteSpace=wrap;html=1;fillColor=#d5e8d4;strokeColor=#82b366;" vertex="1" parent="1">
          <mxGeometry x="100" y="700" width="120" height="40" as="geometry" />
        </mxCell>
        <mxCell id="MDP2hwWKjY6NF6i7BJ9W-16" value="前柜数据 1...n" style="rounded=0;whiteSpace=wrap;html=1;fillColor=#dae8fc;strokeColor=#6c8ebf;" vertex="1" parent="1">
          <mxGeometry x="100" y="600" width="120" height="40" as="geometry" />
        </mxCell>
        <mxCell id="MDP2hwWKjY6NF6i7BJ9W-17" value="&lt;h1&gt;&lt;font style=&quot;font-size: 17px&quot;&gt;工艺数据的特点&lt;/font&gt;&lt;/h1&gt;&lt;div&gt;采用最小数据单位，结构化且自带标签，相互没有关联&lt;/div&gt;&lt;div&gt;&lt;br&gt;&lt;/div&gt;&lt;div&gt;通道完全独立，脱机时，不工作的通道没有数据，根据压缩策略。不是每秒都有数据&lt;/div&gt;&lt;div&gt;&lt;br&gt;&lt;/div&gt;&lt;div&gt;日志数据是非周期性的，明文，所见即所得。&lt;/div&gt;&lt;div&gt;&lt;br&gt;&lt;/div&gt;&lt;div&gt;以上数据都会得到保护&lt;/div&gt;" style="text;html=1;strokeColor=none;fillColor=none;spacing=5;spacingTop=-20;whiteSpace=wrap;overflow=hidden;rounded=0;" vertex="1" parent="1">
          <mxGeometry x="50" y="770" width="220" height="210" as="geometry" />
        </mxCell>
        <mxCell id="MDP2hwWKjY6NF6i7BJ9W-18" value="工艺数据" style="text;html=1;strokeColor=none;fillColor=none;align=center;verticalAlign=middle;whiteSpace=wrap;rounded=0;fontSize=16;" vertex="1" parent="1">
          <mxGeometry x="92" y="410" width="150" height="20" as="geometry" />
        </mxCell>
        <mxCell id="MDP2hwWKjY6NF6i7BJ9W-19" value="" style="shape=flexArrow;endArrow=classic;html=1;" edge="1" parent="1">
          <mxGeometry width="50" height="50" relative="1" as="geometry">
            <mxPoint x="290" y="489" as="sourcePoint" />
            <mxPoint x="390" y="489" as="targetPoint" />
          </mxGeometry>
        </mxCell>
        <mxCell id="MDP2hwWKjY6NF6i7BJ9W-20" value="RAM" style="shape=cylinder;whiteSpace=wrap;html=1;boundedLbl=1;backgroundOutline=1;" vertex="1" parent="1">
          <mxGeometry x="426" y="470" width="65" height="64" as="geometry" />
        </mxCell>
        <mxCell id="MDP2hwWKjY6NF6i7BJ9W-21" value="抽象队列带保护" style="text;html=1;strokeColor=none;fillColor=none;align=center;verticalAlign=middle;whiteSpace=wrap;rounded=0;fontSize=12;" vertex="1" parent="1">
          <mxGeometry x="399" y="430" width="120" height="20" as="geometry" />
        </mxCell>
        <mxCell id="MDP2hwWKjY6NF6i7BJ9W-22" value="模块原始数据&lt;br&gt;&lt;font style=&quot;font-size: 12px&quot;&gt;CAN数据&lt;/font&gt;" style="rounded=0;whiteSpace=wrap;html=1;fontSize=16;fillColor=#f5f5f5;strokeColor=#666666;fontColor=#333333;" vertex="1" parent="1">
          <mxGeometry x="70" y="240" width="180" height="50" as="geometry" />
        </mxCell>
        <mxCell id="MDP2hwWKjY6NF6i7BJ9W-23" value="RAM" style="shape=cylinder;whiteSpace=wrap;html=1;boundedLbl=1;backgroundOutline=1;fontSize=12;" vertex="1" parent="1">
          <mxGeometry x="400" y="230" width="60" height="80" as="geometry" />
        </mxCell>
        <mxCell id="MDP2hwWKjY6NF6i7BJ9W-24" value="" style="shape=flexArrow;endArrow=classic;html=1;" edge="1" parent="1">
          <mxGeometry width="50" height="50" relative="1" as="geometry">
            <mxPoint x="290" y="270" as="sourcePoint" />
            <mxPoint x="390" y="270" as="targetPoint" />
          </mxGeometry>
        </mxCell>
        <mxCell id="MDP2hwWKjY6NF6i7BJ9W-25" value="不带保护的队列" style="text;html=1;strokeColor=none;fillColor=none;align=center;verticalAlign=middle;whiteSpace=wrap;rounded=0;fontSize=12;" vertex="1" parent="1">
          <mxGeometry x="370" y="202" width="120" height="20" as="geometry" />
        </mxCell>
        <mxCell id="MDP2hwWKjY6NF6i7BJ9W-26" value="根据连接情况限制入队" style="text;html=1;strokeColor=none;fillColor=none;align=center;verticalAlign=middle;whiteSpace=wrap;rounded=0;fontSize=11;" vertex="1" parent="1">
          <mxGeometry x="279" y="244" width="121" height="12" as="geometry" />
        </mxCell>
        <mxCell id="MDP2hwWKjY6NF6i7BJ9W-27" value="&lt;h1&gt;&lt;br&gt;&lt;/h1&gt;&lt;p&gt;适用于调试后台与校准软件，提供与模块直接交互的通道，任何更改不影响中位机的其它功能。&lt;/p&gt;&lt;p&gt;根据队列积压数尽最大能力发送，主动发送。&lt;/p&gt;&lt;p&gt;连接丢失时立刻清空队列&lt;/p&gt;" style="text;html=1;strokeColor=none;fillColor=none;spacing=5;spacingTop=-20;whiteSpace=wrap;overflow=hidden;rounded=0;fontSize=11;" vertex="1" parent="1">
          <mxGeometry x="568" y="190.5" width="245" height="119" as="geometry" />
        </mxCell>
        <mxCell id="MDP2hwWKjY6NF6i7BJ9W-28" value="&lt;h1&gt;&lt;font style=&quot;font-size: 17px&quot;&gt;传输模块特点&lt;/font&gt;&lt;/h1&gt;&lt;p&gt;在握手成功后主动发送数据，流式传输，不考虑数据边界，&lt;/p&gt;&lt;p&gt;按顺序发送，没有积压时，上位机显示的才是最新的数据。&lt;/p&gt;&lt;p&gt;具备线路保护，不会因为线路原因导致丢数据，在收到TCP应答时才正式出队。&lt;/p&gt;&lt;p&gt;&lt;font color=&quot;#ff3333&quot;&gt;如果上位机收到了数据但没有存文件且崩溃，就会丢数据，数据丢失将会导致曲线少一个X点。积压的越多崩溃时丢失越多。&lt;/font&gt;&lt;/p&gt;&lt;p&gt;全双工，实时接收与解析上位机的命令，控制工艺的执行。&lt;/p&gt;&lt;p&gt;&lt;br&gt;&lt;/p&gt;" style="text;html=1;strokeColor=none;fillColor=none;spacing=5;spacingTop=-20;whiteSpace=wrap;overflow=hidden;rounded=0;fontSize=11;" vertex="1" parent="1">
          <mxGeometry x="568" y="410" width="245" height="350" as="geometry" />
        </mxCell>
        <mxCell id="MDP2hwWKjY6NF6i7BJ9W-29" value="按数据创建的顺序入队" style="text;html=1;strokeColor=none;fillColor=none;align=center;verticalAlign=middle;whiteSpace=wrap;rounded=0;fontSize=11;" vertex="1" parent="1">
          <mxGeometry x="239" y="459" width="181" height="12" as="geometry" />
        </mxCell>
        <mxCell id="MDP2hwWKjY6NF6i7BJ9W-30" value="" style="rounded=0;whiteSpace=wrap;html=1;fontSize=11;" vertex="1" parent="1">
          <mxGeometry x="120" y="1100" width="640" height="40" as="geometry" />
        </mxCell>
        <mxCell id="MDP2hwWKjY6NF6i7BJ9W-31" value="" style="endArrow=classic;html=1;fontSize=11;exitX=0.5;exitY=1;exitDx=0;exitDy=0;" edge="1" parent="1" source="MDP2hwWKjY6NF6i7BJ9W-34">
          <mxGeometry width="50" height="50" relative="1" as="geometry">
            <mxPoint x="461" y="1060" as="sourcePoint" />
            <mxPoint x="461" y="1098" as="targetPoint" />
            <Array as="points">
              <mxPoint x="470" y="1070" />
            </Array>
          </mxGeometry>
        </mxCell>
        <mxCell id="MDP2hwWKjY6NF6i7BJ9W-32" value="" style="endArrow=classic;html=1;fontSize=11;entryX=0;entryY=1.005;entryDx=0;entryDy=0;entryPerimeter=0;exitX=0.5;exitY=0;exitDx=0;exitDy=0;" edge="1" parent="1" source="MDP2hwWKjY6NF6i7BJ9W-33" target="MDP2hwWKjY6NF6i7BJ9W-45">
          <mxGeometry width="50" height="50" relative="1" as="geometry">
            <mxPoint x="240" y="1240" as="sourcePoint" />
            <mxPoint x="330" y="1150" as="targetPoint" />
            <Array as="points">
              <mxPoint x="260" y="1190" />
            </Array>
          </mxGeometry>
        </mxCell>
        <mxCell id="MDP2hwWKjY6NF6i7BJ9W-33" value="入队位置" style="text;html=1;strokeColor=none;fillColor=none;align=center;verticalAlign=middle;whiteSpace=wrap;rounded=0;fontSize=11;" vertex="1" parent="1">
          <mxGeometry x="190" y="1230" width="60" height="20" as="geometry" />
        </mxCell>
        <mxCell id="MDP2hwWKjY6NF6i7BJ9W-34" value="出队，已发送位置" style="text;html=1;strokeColor=none;fillColor=none;align=center;verticalAlign=middle;whiteSpace=wrap;rounded=0;fontSize=11;" vertex="1" parent="1">
          <mxGeometry x="417" y="1020" width="93" height="20" as="geometry" />
        </mxCell>
        <mxCell id="MDP2hwWKjY6NF6i7BJ9W-35" value="" style="endArrow=classic;html=1;strokeColor=#EA6B66;fontSize=11;" edge="1" parent="1">
          <mxGeometry width="50" height="50" relative="1" as="geometry">
            <mxPoint x="572" y="1039" as="sourcePoint" />
            <mxPoint x="561" y="1100" as="targetPoint" />
            <Array as="points">
              <mxPoint x="552" y="1069" />
            </Array>
          </mxGeometry>
        </mxCell>
        <mxCell id="MDP2hwWKjY6NF6i7BJ9W-36" value="TCP ACK应答位置" style="text;html=1;strokeColor=none;fillColor=none;align=center;verticalAlign=middle;whiteSpace=wrap;rounded=0;fontSize=11;" vertex="1" parent="1">
          <mxGeometry x="540" y="1020" width="100" height="20" as="geometry" />
        </mxCell>
        <mxCell id="MDP2hwWKjY6NF6i7BJ9W-37" value="&lt;h1&gt;&lt;font style=&quot;font-size: 12px&quot;&gt;线路保护说明：&lt;/font&gt;&lt;/h1&gt;&lt;p&gt;如果网络中断，已出队并传入TCP流的数据可能并没有被接收到，下次连接后从应答位置再次重新发送数据。&lt;/p&gt;" style="text;html=1;strokeColor=none;fillColor=none;spacing=5;spacingTop=-20;whiteSpace=wrap;overflow=hidden;rounded=0;fontSize=11;" vertex="1" parent="1">
          <mxGeometry x="120" y="1010" width="190" height="90" as="geometry" />
        </mxCell>
        <mxCell id="MDP2hwWKjY6NF6i7BJ9W-38" value="中位机和上位机的通讯方式和数据格式简单介绍" style="text;html=1;strokeColor=none;fillColor=none;align=center;verticalAlign=middle;whiteSpace=wrap;rounded=0;fontSize=11;" vertex="1" parent="1">
          <mxGeometry x="290" y="40" width="320" height="20" as="geometry" />
        </mxCell>
        <mxCell id="MDP2hwWKjY6NF6i7BJ9W-39" value="" style="rounded=0;whiteSpace=wrap;html=1;fontSize=11;fillColor=#D5E8D4;strokeColor=#666666;fontColor=#333333;" vertex="1" parent="1">
          <mxGeometry x="310" y="1100" width="40" height="40" as="geometry" />
        </mxCell>
        <mxCell id="MDP2hwWKjY6NF6i7BJ9W-40" value="" style="rounded=0;whiteSpace=wrap;html=1;fontSize=11;fillColor=#D5E8D4;strokeColor=#666666;fontColor=#333333;" vertex="1" parent="1">
          <mxGeometry x="350" y="1100" width="40" height="40" as="geometry" />
        </mxCell>
        <mxCell id="MDP2hwWKjY6NF6i7BJ9W-41" value="" style="rounded=0;whiteSpace=wrap;html=1;fontSize=11;fillColor=#D5E8D4;strokeColor=#666666;fontColor=#333333;" vertex="1" parent="1">
          <mxGeometry x="390" y="1100" width="40" height="40" as="geometry" />
        </mxCell>
        <mxCell id="MDP2hwWKjY6NF6i7BJ9W-42" value="" style="rounded=0;whiteSpace=wrap;html=1;fontSize=11;fillColor=#D5E8D4;strokeColor=#666666;fontColor=#333333;" vertex="1" parent="1">
          <mxGeometry x="430" y="1100" width="40" height="40" as="geometry" />
        </mxCell>
        <mxCell id="MDP2hwWKjY6NF6i7BJ9W-43" value="" style="rounded=0;whiteSpace=wrap;html=1;fontSize=11;fillColor=#D5E8D4;strokeColor=#666666;fontColor=#333333;" vertex="1" parent="1">
          <mxGeometry x="470" y="1100" width="40" height="40" as="geometry" />
        </mxCell>
        <mxCell id="MDP2hwWKjY6NF6i7BJ9W-44" value="" style="rounded=0;whiteSpace=wrap;html=1;fontSize=11;fillColor=#D5E8D4;strokeColor=#666666;fontColor=#333333;" vertex="1" parent="1">
          <mxGeometry x="510" y="1100" width="40" height="40" as="geometry" />
        </mxCell>
        <mxCell id="MDP2hwWKjY6NF6i7BJ9W-45" value="" style="rounded=0;whiteSpace=wrap;html=1;fontSize=11;fillColor=#D5E8D4;strokeColor=#666666;fontColor=#333333;" vertex="1" parent="1">
          <mxGeometry x="270" y="1100" width="40" height="40" as="geometry" />
        </mxCell>
        <mxCell id="MDP2hwWKjY6NF6i7BJ9W-46" value="" style="rounded=0;whiteSpace=wrap;html=1;fontSize=11;" vertex="1" parent="1">
          <mxGeometry x="320" y="1215" width="210" height="35" as="geometry" />
        </mxCell>
        <mxCell id="MDP2hwWKjY6NF6i7BJ9W-47" value="帧起始引导符" style="rounded=0;whiteSpace=wrap;html=1;fontSize=11;" vertex="1" parent="1">
          <mxGeometry x="320" y="1215" width="40" height="35" as="geometry" />
        </mxCell>
        <mxCell id="MDP2hwWKjY6NF6i7BJ9W-48" value="帧长度" style="rounded=0;whiteSpace=wrap;html=1;fontSize=11;" vertex="1" parent="1">
          <mxGeometry x="360" y="1215" width="40" height="35" as="geometry" />
        </mxCell>
        <mxCell id="MDP2hwWKjY6NF6i7BJ9W-49" value="数据类型" style="rounded=0;whiteSpace=wrap;html=1;fontSize=11;" vertex="1" parent="1">
          <mxGeometry x="400" y="1215" width="40" height="35" as="geometry" />
        </mxCell>
        <mxCell id="MDP2hwWKjY6NF6i7BJ9W-50" value="数据......." style="rounded=0;whiteSpace=wrap;html=1;fontSize=11;" vertex="1" parent="1">
          <mxGeometry x="440" y="1215" width="90" height="35" as="geometry" />
        </mxCell>
        <mxCell id="MDP2hwWKjY6NF6i7BJ9W-51" value="" style="endArrow=none;html=1;strokeColor=#4D4D4D;fontSize=11;entryX=0.99;entryY=1.001;entryDx=0;entryDy=0;entryPerimeter=0;exitX=0;exitY=0.038;exitDx=0;exitDy=0;exitPerimeter=0;" edge="1" parent="1" source="MDP2hwWKjY6NF6i7BJ9W-47" target="MDP2hwWKjY6NF6i7BJ9W-45">
          <mxGeometry width="50" height="50" relative="1" as="geometry">
            <mxPoint x="300" y="1210" as="sourcePoint" />
            <mxPoint x="350" y="1160" as="targetPoint" />
          </mxGeometry>
        </mxCell>
        <mxCell id="MDP2hwWKjY6NF6i7BJ9W-52" value="" style="endArrow=none;html=1;strokeColor=#4D4D4D;fontSize=11;exitX=1.004;exitY=-0.01;exitDx=0;exitDy=0;exitPerimeter=0;" edge="1" parent="1" source="MDP2hwWKjY6NF6i7BJ9W-50">
          <mxGeometry width="50" height="50" relative="1" as="geometry">
            <mxPoint x="340" y="1210" as="sourcePoint" />
            <mxPoint x="350" y="1140" as="targetPoint" />
          </mxGeometry>
        </mxCell>
        <mxCell id="MDP2hwWKjY6NF6i7BJ9W-53" value="数据保护与传输模块，10002端口" style="text;html=1;strokeColor=none;fillColor=none;align=center;verticalAlign=middle;whiteSpace=wrap;rounded=0;fontSize=16;fontStyle=1" vertex="1" parent="1">
          <mxGeometry x="370" y="370" width="380" height="20" as="geometry" />
        </mxCell>
        <mxCell id="MDP2hwWKjY6NF6i7BJ9W-54" value="传输模块，10001端口" style="text;html=1;strokeColor=none;fillColor=none;align=center;verticalAlign=middle;whiteSpace=wrap;rounded=0;fontSize=16;fontStyle=1" vertex="1" parent="1">
          <mxGeometry x="455" y="105.5" width="170" height="20" as="geometry" />
        </mxCell>
        <mxCell id="MDP2hwWKjY6NF6i7BJ9W-55" value="工艺管理与数据创建" style="text;html=1;strokeColor=none;fillColor=none;align=center;verticalAlign=middle;whiteSpace=wrap;rounded=0;fontSize=16;fontStyle=1" vertex="1" parent="1">
          <mxGeometry x="69" y="110" width="170" height="20" as="geometry" />
        </mxCell>
        <mxCell id="MDP2hwWKjY6NF6i7BJ9W-56" value="" style="rounded=0;whiteSpace=wrap;html=1;fontSize=11;strokeColor=#666666;fillColor=#FFFFFF;" vertex="1" parent="1">
          <mxGeometry x="550" y="1100" width="40" height="40" as="geometry" />
        </mxCell>
        <mxCell id="MDP2hwWKjY6NF6i7BJ9W-57" value="" style="rounded=0;whiteSpace=wrap;html=1;fontSize=11;fillColor=#D5E8D4;strokeColor=none;fontColor=#333333;" vertex="1" parent="1">
          <mxGeometry x="551" y="1101" width="10" height="39" as="geometry" />
        </mxCell>
        <mxCell id="MDP2hwWKjY6NF6i7BJ9W-58" value="" style="rounded=0;whiteSpace=wrap;html=1;fontSize=11;strokeColor=#666666;fillColor=#FFFFFF;" vertex="1" parent="1">
          <mxGeometry x="590" y="1100" width="40" height="40" as="geometry" />
        </mxCell>
        <mxCell id="MDP2hwWKjY6NF6i7BJ9W-59" value="" style="rounded=0;whiteSpace=wrap;html=1;fontSize=11;strokeColor=#666666;fillColor=#FFFFFF;" vertex="1" parent="1">
          <mxGeometry x="630" y="1100" width="40" height="40" as="geometry" />
        </mxCell>
        <mxCell id="MDP2hwWKjY6NF6i7BJ9W-60" value="" style="rounded=0;whiteSpace=wrap;html=1;fontSize=11;strokeColor=#666666;fillColor=#FFFFFF;" vertex="1" parent="1">
          <mxGeometry x="670.5" y="1100" width="40" height="40" as="geometry" />
        </mxCell>
        <mxCell id="MDP2hwWKjY6NF6i7BJ9W-61" value="以太网" style="text;html=1;strokeColor=none;fillColor=none;align=center;verticalAlign=middle;whiteSpace=wrap;rounded=0;fontSize=19;" vertex="1" parent="1">
          <mxGeometry x="900" y="465" width="60" height="20" as="geometry" />
        </mxCell>
        <mxCell id="MDP2hwWKjY6NF6i7BJ9W-62" value="设备实例" style="text;html=1;strokeColor=none;fillColor=none;align=center;verticalAlign=middle;whiteSpace=wrap;rounded=0;fontSize=19;" vertex="1" parent="1">
          <mxGeometry x="1060" y="350" width="95" height="20" as="geometry" />
        </mxCell>
        <mxCell id="MDP2hwWKjY6NF6i7BJ9W-63" value="" style="rounded=0;whiteSpace=wrap;html=1;fontSize=19;" vertex="1" parent="1">
          <mxGeometry x="1230" y="425" width="140" height="105" as="geometry" />
        </mxCell>
        <mxCell id="MDP2hwWKjY6NF6i7BJ9W-64" value="通道影子" style="rounded=0;whiteSpace=wrap;html=1;strokeColor=#666666;fillColor=#D5E8D4;fontSize=19;" vertex="1" parent="1">
          <mxGeometry x="1240" y="475" width="90" height="45" as="geometry" />
        </mxCell>
        <mxCell id="MDP2hwWKjY6NF6i7BJ9W-65" value="通道影子" style="rounded=0;whiteSpace=wrap;html=1;strokeColor=#666666;fillColor=#D5E8D4;fontSize=19;" vertex="1" parent="1">
          <mxGeometry x="1250" y="465" width="90" height="45" as="geometry" />
        </mxCell>
        <mxCell id="MDP2hwWKjY6NF6i7BJ9W-66" value="通道影子" style="rounded=0;whiteSpace=wrap;html=1;strokeColor=#666666;fillColor=#D5E8D4;fontSize=19;" vertex="1" parent="1">
          <mxGeometry x="1260" y="452.5" width="90" height="45" as="geometry" />
        </mxCell>
        <mxCell id="MDP2hwWKjY6NF6i7BJ9W-67" value="通道影子" style="rounded=0;whiteSpace=wrap;html=1;strokeColor=#666666;fillColor=#D5E8D4;fontSize=14;" vertex="1" parent="1">
          <mxGeometry x="1270" y="442.5" width="90" height="45" as="geometry" />
        </mxCell>
        <mxCell id="MDP2hwWKjY6NF6i7BJ9W-68" value="" style="rounded=0;whiteSpace=wrap;html=1;fontSize=19;" vertex="1" parent="1">
          <mxGeometry x="1230" y="545" width="140" height="105" as="geometry" />
        </mxCell>
        <mxCell id="MDP2hwWKjY6NF6i7BJ9W-69" value="通道影子" style="rounded=0;whiteSpace=wrap;html=1;strokeColor=#666666;fillColor=#D5E8D4;fontSize=19;" vertex="1" parent="1">
          <mxGeometry x="1240" y="595" width="90" height="45" as="geometry" />
        </mxCell>
        <mxCell id="MDP2hwWKjY6NF6i7BJ9W-70" value="通道影子" style="rounded=0;whiteSpace=wrap;html=1;strokeColor=#666666;fillColor=#D5E8D4;fontSize=19;" vertex="1" parent="1">
          <mxGeometry x="1250" y="585" width="90" height="45" as="geometry" />
        </mxCell>
        <mxCell id="MDP2hwWKjY6NF6i7BJ9W-71" value="通道影子" style="rounded=0;whiteSpace=wrap;html=1;strokeColor=#666666;fillColor=#D5E8D4;fontSize=19;" vertex="1" parent="1">
          <mxGeometry x="1260" y="572.5" width="90" height="45" as="geometry" />
        </mxCell>
        <mxCell id="MDP2hwWKjY6NF6i7BJ9W-72" value="通道影子" style="rounded=0;whiteSpace=wrap;html=1;strokeColor=#666666;fillColor=#D5E8D4;fontSize=15;" vertex="1" parent="1">
          <mxGeometry x="1270" y="562.5" width="90" height="45" as="geometry" />
        </mxCell>
        <mxCell id="MDP2hwWKjY6NF6i7BJ9W-73" value="" style="rounded=0;whiteSpace=wrap;html=1;fontSize=19;" vertex="1" parent="1">
          <mxGeometry x="1070" y="423" width="110" height="237" as="geometry" />
        </mxCell>
        <mxCell id="MDP2hwWKjY6NF6i7BJ9W-74" value="接收队列" style="shape=cylinder;whiteSpace=wrap;html=1;boundedLbl=1;backgroundOutline=1;fontSize=12;" vertex="1" parent="1">
          <mxGeometry x="1095" y="444" width="60" height="58" as="geometry" />
        </mxCell>
        <mxCell id="MDP2hwWKjY6NF6i7BJ9W-75" value="库位实例" style="text;html=1;strokeColor=none;fillColor=none;align=center;verticalAlign=middle;whiteSpace=wrap;rounded=0;fontSize=10;" vertex="1" parent="1">
          <mxGeometry x="1230" y="410" width="55" height="11" as="geometry" />
        </mxCell>
        <mxCell id="MDP2hwWKjY6NF6i7BJ9W-76" value="库位实例" style="text;html=1;strokeColor=none;fillColor=none;align=center;verticalAlign=middle;whiteSpace=wrap;rounded=0;fontSize=10;" vertex="1" parent="1">
          <mxGeometry x="1230" y="652" width="55" height="11" as="geometry" />
        </mxCell>
        <mxCell id="MDP2hwWKjY6NF6i7BJ9W-77" value="&lt;h1 style=&quot;font-size: 13px&quot;&gt;异步接收模块&lt;/h1&gt;&lt;div style=&quot;font-size: 11px&quot;&gt;&lt;font style=&quot;font-size: 11px&quot;&gt;全异步接收，能引发数据包接收到事件，零拷贝。&lt;/font&gt;&lt;/div&gt;&lt;div style=&quot;font-size: 11px&quot;&gt;&lt;font style=&quot;font-size: 11px&quot;&gt;也可以不订阅事件，通过调大队列容量，慢慢消耗数据，正常情况，队列基本为空&lt;/font&gt;&lt;/div&gt;" style="text;html=1;strokeColor=none;fillColor=none;spacing=5;spacingTop=-20;whiteSpace=wrap;overflow=hidden;rounded=0;fontSize=12;" vertex="1" parent="1">
          <mxGeometry x="1070" y="512.5" width="110" height="120" as="geometry" />
        </mxCell>
        <mxCell id="MDP2hwWKjY6NF6i7BJ9W-78" value="" style="endArrow=classic;html=1;strokeColor=#4D4D4D;fontSize=12;" edge="1" parent="1" target="MDP2hwWKjY6NF6i7BJ9W-77">
          <mxGeometry width="50" height="50" relative="1" as="geometry">
            <mxPoint x="1138.0153846153848" y="690" as="sourcePoint" />
            <mxPoint x="1090" y="730" as="targetPoint" />
          </mxGeometry>
        </mxCell>
        <mxCell id="MDP2hwWKjY6NF6i7BJ9W-79" value="&lt;h1&gt;&lt;font style=&quot;font-size: 13px&quot;&gt;Note：&lt;/font&gt;&lt;/h1&gt;&lt;p&gt;&lt;span style=&quot;text-align: center&quot;&gt;根据数据类型更新对应的影子，触发存盘，&lt;/span&gt;&lt;/p&gt;&lt;p&gt;&lt;span style=&quot;text-align: center&quot;&gt;按通道存文件：&lt;/span&gt;&lt;/p&gt;&lt;p&gt;&lt;span style=&quot;text-align: center&quot;&gt;各通道按各自的足量或超时触发。根据过滤策略过滤数据。&lt;/span&gt;&lt;/p&gt;&lt;p&gt;&lt;span style=&quot;text-align: center&quot;&gt;按库位存文件：&lt;font color=&quot;#ff3333&quot;&gt;NEW&lt;/font&gt;&lt;/span&gt;&lt;/p&gt;&lt;p&gt;&lt;span style=&quot;text-align: center&quot;&gt;收到前柜数据时触发，将此时的各通道数据整合后写入文件或着足量再写入文件，&lt;font color=&quot;#ff3333&quot;&gt;无法压缩数据，通道不独立&lt;/font&gt;&lt;/span&gt;&lt;span style=&quot;text-align: center&quot;&gt;&lt;br&gt;&lt;/span&gt;&lt;/p&gt;&lt;p style=&quot;text-align: center&quot;&gt;&lt;br&gt;&lt;/p&gt;" style="text;html=1;strokeColor=none;fillColor=none;spacing=5;spacingTop=-20;whiteSpace=wrap;overflow=hidden;rounded=0;fontSize=12;" vertex="1" parent="1">
          <mxGeometry x="1065" y="675" width="255" height="225" as="geometry" />
        </mxCell>
        <mxCell id="MDP2hwWKjY6NF6i7BJ9W-80" value="&lt;font style=&quot;font-size: 22px&quot;&gt;监控UI&lt;/font&gt;&lt;br&gt;&lt;font style=&quot;font-size: 15px&quot;&gt;人工控制&lt;/font&gt;" style="rounded=0;whiteSpace=wrap;html=1;fontSize=28;strokeColor=#009900;" vertex="1" parent="1">
          <mxGeometry x="1480" y="475" width="120" height="60" as="geometry" />
        </mxCell>
        <mxCell id="MDP2hwWKjY6NF6i7BJ9W-81" value="&lt;h1 style=&quot;font-size: 13px&quot;&gt;从影子更新监控UI&lt;/h1&gt;&lt;div style=&quot;font-size: 12px&quot;&gt;以固定频率更新可见的UI，更新通道视图UI或者库位视图UI，或将实时状态共享给第三方&lt;/div&gt;" style="text;html=1;strokeColor=none;fillColor=none;spacing=5;spacingTop=-20;whiteSpace=wrap;overflow=hidden;rounded=0;fontSize=28;" vertex="1" parent="1">
          <mxGeometry x="1440" y="359.5" width="148" height="79" as="geometry" />
        </mxCell>
        <mxCell id="MDP2hwWKjY6NF6i7BJ9W-82" value="硬盘" style="shape=cylinder;whiteSpace=wrap;html=1;boundedLbl=1;backgroundOutline=1;strokeColor=#6c8ebf;fillColor=#dae8fc;fontSize=28;" vertex="1" parent="1">
          <mxGeometry x="1360" y="725" width="70" height="90" as="geometry" />
        </mxCell>
        <mxCell id="MDP2hwWKjY6NF6i7BJ9W-83" value="" style="curved=1;endArrow=classic;html=1;strokeColor=#4D4D4D;fontSize=28;exitX=0.915;exitY=1.015;exitDx=0;exitDy=0;exitPerimeter=0;" edge="1" parent="1" source="MDP2hwWKjY6NF6i7BJ9W-3" target="MDP2hwWKjY6NF6i7BJ9W-82">
          <mxGeometry width="50" height="50" relative="1" as="geometry">
            <mxPoint x="1410" y="700" as="sourcePoint" />
            <mxPoint x="1460" y="650" as="targetPoint" />
            <Array as="points">
              <mxPoint x="1440" y="710" />
              <mxPoint x="1390" y="650" />
            </Array>
          </mxGeometry>
        </mxCell>
        <mxCell id="MDP2hwWKjY6NF6i7BJ9W-84" value="数据分析UI" style="rounded=0;whiteSpace=wrap;html=1;fontSize=21;" vertex="1" parent="1">
          <mxGeometry x="1480" y="675" width="120" height="60" as="geometry" />
        </mxCell>
        <mxCell id="MDP2hwWKjY6NF6i7BJ9W-85" value="" style="endArrow=classic;html=1;strokeColor=#4D4D4D;fontSize=21;entryX=1;entryY=0.7;entryDx=0;entryDy=0;exitX=0.642;exitY=1;exitDx=0;exitDy=0;exitPerimeter=0;" edge="1" parent="1" source="MDP2hwWKjY6NF6i7BJ9W-84" target="MDP2hwWKjY6NF6i7BJ9W-82">
          <mxGeometry width="50" height="50" relative="1" as="geometry">
            <mxPoint x="1500" y="830" as="sourcePoint" />
            <mxPoint x="1550" y="780" as="targetPoint" />
            <Array as="points">
              <mxPoint x="1540" y="760" />
              <mxPoint x="1500" y="780" />
              <mxPoint x="1470" y="790" />
            </Array>
          </mxGeometry>
        </mxCell>
        <mxCell id="MDP2hwWKjY6NF6i7BJ9W-86" value="从磁盘加载数据并展示数据" style="text;html=1;strokeColor=none;fillColor=none;align=center;verticalAlign=middle;whiteSpace=wrap;rounded=0;fontSize=12;" vertex="1" parent="1">
          <mxGeometry x="1480" y="785" width="95" height="20" as="geometry" />
        </mxCell>
        <mxCell id="MDP2hwWKjY6NF6i7BJ9W-87" value="通道实例" style="text;html=1;strokeColor=none;fillColor=none;align=center;verticalAlign=middle;whiteSpace=wrap;rounded=0;fontSize=8;" vertex="1" parent="1">
          <mxGeometry x="1325" y="430" width="35" height="11" as="geometry" />
        </mxCell>
        <mxCell id="MDP2hwWKjY6NF6i7BJ9W-88" value="第三方对接与自动控制" style="rounded=0;whiteSpace=wrap;html=1;fontSize=10;" vertex="1" parent="1">
          <mxGeometry x="1480" y="560" width="120" height="59" as="geometry" />
        </mxCell>
        <mxCell id="MDP2hwWKjY6NF6i7BJ9W-89" value="" style="shape=flexArrow;endArrow=classic;startArrow=classic;html=1;strokeColor=#4D4D4D;fontSize=10;exitX=1;exitY=0.445;exitDx=0;exitDy=0;exitPerimeter=0;entryX=0;entryY=0.5;entryDx=0;entryDy=0;width=8.333333333333334;endSize=4.525;endWidth=19.72222222222222;startWidth=19.72222222222222;startSize=4.525;" edge="1" parent="1" source="MDP2hwWKjY6NF6i7BJ9W-2" target="MDP2hwWKjY6NF6i7BJ9W-80">
          <mxGeometry width="50" height="50" relative="1" as="geometry">
            <mxPoint x="1430" y="550" as="sourcePoint" />
            <mxPoint x="1480" y="500" as="targetPoint" />
          </mxGeometry>
        </mxCell>
        <mxCell id="MDP2hwWKjY6NF6i7BJ9W-90" value="" style="shape=flexArrow;endArrow=classic;startArrow=classic;html=1;strokeColor=#4D4D4D;fontSize=10;exitX=1;exitY=0.445;exitDx=0;exitDy=0;exitPerimeter=0;entryX=0;entryY=0.5;entryDx=0;entryDy=0;startWidth=23.6;startSize=4.375;endWidth=23.6;endSize=4.375;" edge="1" parent="1">
          <mxGeometry width="50" height="50" relative="1" as="geometry">
            <mxPoint x="1410" y="590.21" as="sourcePoint" />
            <mxPoint x="1480" y="591.5" as="targetPoint" />
          </mxGeometry>
        </mxCell>
        <mxCell id="MDP2hwWKjY6NF6i7BJ9W-91" value="" style="shape=flexArrow;endArrow=classic;startArrow=classic;html=1;strokeColor=#4D4D4D;fontSize=10;" edge="1" parent="1">
          <mxGeometry width="50" height="50" relative="1" as="geometry">
            <mxPoint x="830" y="490" as="sourcePoint" />
            <mxPoint x="1010" y="490" as="targetPoint" />
          </mxGeometry>
        </mxCell>
        <mxCell id="MDP2hwWKjY6NF6i7BJ9W-92" value="当前后台软件设备与数据部分" style="text;html=1;strokeColor=none;fillColor=none;align=center;verticalAlign=middle;whiteSpace=wrap;rounded=0;fontSize=16;fontStyle=1" vertex="1" parent="1">
          <mxGeometry x="1215" y="290" width="210" height="20" as="geometry" />
        </mxCell>
        <mxCell id="MDP2hwWKjY6NF6i7BJ9W-93" value="调试后台与校准软件" style="rounded=0;whiteSpace=wrap;html=1;strokeColor=#000000;fillColor=none;fontSize=20;" vertex="1" parent="1">
          <mxGeometry x="1017.5" y="155.5" width="215" height="70" as="geometry" />
        </mxCell>
        <mxCell id="MDP2hwWKjY6NF6i7BJ9W-94" value="以太网" style="text;html=1;strokeColor=none;fillColor=none;align=center;verticalAlign=middle;whiteSpace=wrap;rounded=0;fontSize=19;" vertex="1" parent="1">
          <mxGeometry x="895" y="170.5" width="60" height="20" as="geometry" />
        </mxCell>
        <mxCell id="MDP2hwWKjY6NF6i7BJ9W-95" value="" style="shape=flexArrow;endArrow=classic;startArrow=classic;html=1;strokeColor=#4D4D4D;fontSize=10;" edge="1" parent="1">
          <mxGeometry width="50" height="50" relative="1" as="geometry">
            <mxPoint x="825" y="195.5" as="sourcePoint" />
            <mxPoint x="1005" y="195.5" as="targetPoint" />
          </mxGeometry>
        </mxCell>
        <mxCell id="MDP2hwWKjY6NF6i7BJ9W-96" value="" style="rounded=0;whiteSpace=wrap;html=1;fontSize=10;fillColor=none;" vertex="1" parent="1">
          <mxGeometry x="1020" y="320" width="620" height="680" as="geometry" />
        </mxCell>
        <mxCell id="MDP2hwWKjY6NF6i7BJ9W-97" value="" style="rounded=0;whiteSpace=wrap;html=1;fontSize=19;strokeColor=#009900;" vertex="1" parent="1">
          <mxGeometry x="1080" y="380" width="330" height="278" as="geometry" />
        </mxCell>
        <mxCell id="MDP2hwWKjY6NF6i7BJ9W-98" value="" style="rounded=0;whiteSpace=wrap;html=1;fontSize=19;strokeColor=#009900;" vertex="1" parent="1">
          <mxGeometry x="1060" y="399" width="330" height="271" as="geometry" />
        </mxCell>
        <mxCell id="MDP2hwWKjY6NF6i7BJ9W-99" value="" style="rounded=0;whiteSpace=wrap;html=1;fontSize=11;" vertex="1" parent="1">
          <mxGeometry x="40" y="142" width="240" height="838" as="geometry" />
        </mxCell>
        <mxCell id="MDP2hwWKjY6NF6i7BJ9W-100" value="" style="rounded=0;whiteSpace=wrap;html=1;fontSize=16;" vertex="1" parent="1">
          <mxGeometry x="320" y="140" width="500" height="190" as="geometry" />
        </mxCell>
        <mxCell id="MDP2hwWKjY6NF6i7BJ9W-101" value="" style="rounded=0;whiteSpace=wrap;html=1;fontSize=16;" vertex="1" parent="1">
          <mxGeometry x="320" y="400" width="500" height="580" as="geometry" />
        </mxCell>
        <mxCell id="MDP2hwWKjY6NF6i7BJ9W-102" value="" style="rounded=0;whiteSpace=wrap;html=1;" vertex="1" parent="1">
          <mxGeometry x="400" y="430" width="120" height="180" as="geometry" />
        </mxCell>
        <mxCell id="MDP2hwWKjY6NF6i7BJ9W-103" value="" style="rounded=0;whiteSpace=wrap;html=1;" vertex="1" parent="1">
          <mxGeometry x="70" y="410" width="180" height="360" as="geometry" />
        </mxCell>
        <mxCell id="MDP2hwWKjY6NF6i7BJ9W-104" value="通道数据 1" style="rounded=0;whiteSpace=wrap;html=1;fillColor=#dae8fc;strokeColor=#6c8ebf;" vertex="1" parent="1">
          <mxGeometry x="100" y="450" width="120" height="40" as="geometry" />
        </mxCell>
        <mxCell id="MDP2hwWKjY6NF6i7BJ9W-105" value="Flash" style="shape=cylinder;whiteSpace=wrap;html=1;boundedLbl=1;backgroundOutline=1;" vertex="1" parent="1">
          <mxGeometry x="423.5" y="500" width="70" height="105" as="geometry" />
        </mxCell>
        <mxCell id="MDP2hwWKjY6NF6i7BJ9W-106" value="&lt;h1&gt;&lt;font style=&quot;font-size: 17px&quot;&gt;数据保护模块特点&lt;/font&gt;&lt;/h1&gt;&lt;p&gt;为整个设备提供数据保护功能&lt;/p&gt;&lt;p&gt;队列特性，确保时间顺序，但不关心数据内容。&lt;/p&gt;&lt;p&gt;兼具磨损平衡与坏块管理，通过降低写入频率提高寿命，&lt;font color=&quot;#ff3333&quot;&gt;在RAM区足量或超时才将数据转移至FLASH中保护。但如果突然断电，当前硬件平台就会导致丢失一些数据，如果模块未断电，也会因为模块多工作的几秒钟而没有没记录数据导致数据丢失。&lt;/font&gt;&lt;/p&gt;&lt;p&gt;脱机能力：&lt;/p&gt;&lt;p&gt;&lt;span style=&quot;font-family: &amp;#34;helvetica neue&amp;#34; , &amp;#34;helvetica&amp;#34; , &amp;#34;arial&amp;#34; , sans-serif ; white-space: pre-wrap ; background-color: rgb(255 , 255 , 255)&quot;&gt;可为512个通道同时工作的情况下脱机2个小时，若减少到16个通道同时工作可脱机64个小时。如果隔壁启用了数据过滤，时间则更久。&lt;/span&gt;&lt;br&gt;&lt;/p&gt;" style="text;html=1;strokeColor=none;fillColor=none;spacing=5;spacingTop=-20;whiteSpace=wrap;overflow=hidden;rounded=0;" vertex="1" parent="1">
          <mxGeometry x="365" y="620" width="190" height="330" as="geometry" />
        </mxCell>
        <mxCell id="MDP2hwWKjY6NF6i7BJ9W-107" value="通道数据 2" style="rounded=0;whiteSpace=wrap;html=1;fillColor=#dae8fc;strokeColor=#6c8ebf;" vertex="1" parent="1">
          <mxGeometry x="100" y="500" width="120" height="40" as="geometry" />
        </mxCell>
        <mxCell id="MDP2hwWKjY6NF6i7BJ9W-108" value="通道数据&amp;nbsp; n" style="rounded=0;whiteSpace=wrap;html=1;fillColor=#dae8fc;strokeColor=#6c8ebf;" vertex="1" parent="1">
          <mxGeometry x="100" y="550" width="120" height="40" as="geometry" />
        </mxCell>
        <mxCell id="MDP2hwWKjY6NF6i7BJ9W-109" value="通道级别日志（单条）" style="rounded=0;whiteSpace=wrap;html=1;fillColor=#d5e8d4;strokeColor=#82b366;" vertex="1" parent="1">
          <mxGeometry x="100" y="650" width="120" height="40" as="geometry" />
        </mxCell>
        <mxCell id="MDP2hwWKjY6NF6i7BJ9W-110" value="库位日志或者系统日志（单条）" style="rounded=0;whiteSpace=wrap;html=1;fillColor=#d5e8d4;strokeColor=#82b366;" vertex="1" parent="1">
          <mxGeometry x="100" y="700" width="120" height="40" as="geometry" />
        </mxCell>
        <mxCell id="MDP2hwWKjY6NF6i7BJ9W-111" value="前柜数据 1...n" style="rounded=0;whiteSpace=wrap;html=1;fillColor=#dae8fc;strokeColor=#6c8ebf;" vertex="1" parent="1">
          <mxGeometry x="100" y="600" width="120" height="40" as="geometry" />
        </mxCell>
        <mxCell id="MDP2hwWKjY6NF6i7BJ9W-112" value="&lt;h1&gt;&lt;font style=&quot;font-size: 17px&quot;&gt;工艺数据的特点&lt;/font&gt;&lt;/h1&gt;&lt;div&gt;采用最小数据单位，结构化且自带标签，相互没有关联&lt;/div&gt;&lt;div&gt;&lt;br&gt;&lt;/div&gt;&lt;div&gt;通道完全独立，脱机时，不工作的通道没有数据，根据压缩策略。不是每秒都有数据&lt;/div&gt;&lt;div&gt;&lt;br&gt;&lt;/div&gt;&lt;div&gt;日志数据是非周期性的，明文，所见即所得。&lt;/div&gt;&lt;div&gt;&lt;br&gt;&lt;/div&gt;&lt;div&gt;以上数据都会得到保护&lt;/div&gt;" style="text;html=1;strokeColor=none;fillColor=none;spacing=5;spacingTop=-20;whiteSpace=wrap;overflow=hidden;rounded=0;" vertex="1" parent="1">
          <mxGeometry x="50" y="770" width="220" height="210" as="geometry" />
        </mxCell>
        <mxCell id="MDP2hwWKjY6NF6i7BJ9W-113" value="工艺数据" style="text;html=1;strokeColor=none;fillColor=none;align=center;verticalAlign=middle;whiteSpace=wrap;rounded=0;fontSize=16;" vertex="1" parent="1">
          <mxGeometry x="92" y="410" width="150" height="20" as="geometry" />
        </mxCell>
        <mxCell id="MDP2hwWKjY6NF6i7BJ9W-114" value="" style="shape=flexArrow;endArrow=classic;html=1;" edge="1" parent="1">
          <mxGeometry width="50" height="50" relative="1" as="geometry">
            <mxPoint x="289.9999999999998" y="489" as="sourcePoint" />
            <mxPoint x="389.9999999999998" y="489" as="targetPoint" />
          </mxGeometry>
        </mxCell>
        <mxCell id="MDP2hwWKjY6NF6i7BJ9W-115" value="RAM" style="shape=cylinder;whiteSpace=wrap;html=1;boundedLbl=1;backgroundOutline=1;" vertex="1" parent="1">
          <mxGeometry x="426" y="470" width="65" height="64" as="geometry" />
        </mxCell>
        <mxCell id="MDP2hwWKjY6NF6i7BJ9W-116" value="抽象队列带保护" style="text;html=1;strokeColor=none;fillColor=none;align=center;verticalAlign=middle;whiteSpace=wrap;rounded=0;fontSize=12;" vertex="1" parent="1">
          <mxGeometry x="399" y="430" width="120" height="20" as="geometry" />
        </mxCell>
        <mxCell id="MDP2hwWKjY6NF6i7BJ9W-117" value="电源模块原始数据&lt;br&gt;&lt;font style=&quot;font-size: 12px&quot;&gt;CAN数据&lt;/font&gt;" style="rounded=0;whiteSpace=wrap;html=1;fontSize=16;fillColor=#f5f5f5;strokeColor=#666666;fontColor=#333333;" vertex="1" parent="1">
          <mxGeometry x="70" y="240" width="180" height="50" as="geometry" />
        </mxCell>
        <mxCell id="MDP2hwWKjY6NF6i7BJ9W-118" value="RAM" style="shape=cylinder;whiteSpace=wrap;html=1;boundedLbl=1;backgroundOutline=1;fontSize=12;" vertex="1" parent="1">
          <mxGeometry x="400" y="230" width="60" height="80" as="geometry" />
        </mxCell>
        <mxCell id="MDP2hwWKjY6NF6i7BJ9W-119" value="" style="shape=flexArrow;endArrow=classic;html=1;" edge="1" parent="1">
          <mxGeometry width="50" height="50" relative="1" as="geometry">
            <mxPoint x="289.9999999999998" y="270.0000000000002" as="sourcePoint" />
            <mxPoint x="389.9999999999998" y="270.0000000000002" as="targetPoint" />
          </mxGeometry>
        </mxCell>
        <mxCell id="MDP2hwWKjY6NF6i7BJ9W-120" value="不带保护的队列" style="text;html=1;strokeColor=none;fillColor=none;align=center;verticalAlign=middle;whiteSpace=wrap;rounded=0;fontSize=12;" vertex="1" parent="1">
          <mxGeometry x="370" y="202" width="120" height="20" as="geometry" />
        </mxCell>
        <mxCell id="MDP2hwWKjY6NF6i7BJ9W-121" value="根据连接情况限制入队" style="text;html=1;strokeColor=none;fillColor=none;align=center;verticalAlign=middle;whiteSpace=wrap;rounded=0;fontSize=11;" vertex="1" parent="1">
          <mxGeometry x="279" y="244" width="121" height="12" as="geometry" />
        </mxCell>
        <mxCell id="MDP2hwWKjY6NF6i7BJ9W-122" value="&lt;h1&gt;&lt;br&gt;&lt;/h1&gt;&lt;p&gt;适用于调试后台与校准软件，提供与模块直接交互的通道，任何更改不影响中位机的其它功能。&lt;/p&gt;&lt;p&gt;根据队列积压数尽最大能力发送，主动发送。&lt;/p&gt;&lt;p&gt;连接丢失时立刻清空队列&lt;/p&gt;" style="text;html=1;strokeColor=none;fillColor=none;spacing=5;spacingTop=-20;whiteSpace=wrap;overflow=hidden;rounded=0;fontSize=11;" vertex="1" parent="1">
          <mxGeometry x="568" y="190.5" width="245" height="119" as="geometry" />
        </mxCell>
        <mxCell id="MDP2hwWKjY6NF6i7BJ9W-123" value="&lt;h1&gt;&lt;font style=&quot;font-size: 17px&quot;&gt;传输模块特点&lt;/font&gt;&lt;/h1&gt;&lt;p&gt;在握手成功后主动发送数据，流式传输，不考虑数据边界，&lt;/p&gt;&lt;p&gt;按顺序发送，没有积压时，上位机显示的才是最新的数据。&lt;/p&gt;&lt;p&gt;具备线路保护，不会因为线路原因导致丢数据，在收到TCP应答时才正式出队。&lt;/p&gt;&lt;p&gt;&lt;font color=&quot;#ff3333&quot;&gt;如果上位机收到了数据但没有存文件且崩溃，就会丢数据，数据丢失将会导致曲线少一个X点。积压的越多崩溃时丢失越多。&lt;/font&gt;&lt;/p&gt;&lt;p&gt;全双工，实时接收与解析上位机的命令，控制工艺的执行。&lt;/p&gt;&lt;p&gt;&lt;br&gt;&lt;/p&gt;" style="text;html=1;strokeColor=none;fillColor=none;spacing=5;spacingTop=-20;whiteSpace=wrap;overflow=hidden;rounded=0;fontSize=11;" vertex="1" parent="1">
          <mxGeometry x="568" y="410" width="245" height="350" as="geometry" />
        </mxCell>
        <mxCell id="MDP2hwWKjY6NF6i7BJ9W-124" value="按数据创建的顺序入队" style="text;html=1;strokeColor=none;fillColor=none;align=center;verticalAlign=middle;whiteSpace=wrap;rounded=0;fontSize=11;" vertex="1" parent="1">
          <mxGeometry x="239" y="459" width="181" height="12" as="geometry" />
        </mxCell>
        <mxCell id="MDP2hwWKjY6NF6i7BJ9W-125" value="" style="rounded=0;whiteSpace=wrap;html=1;fontSize=11;" vertex="1" parent="1">
          <mxGeometry x="120" y="1100" width="640" height="40" as="geometry" />
        </mxCell>
        <mxCell id="MDP2hwWKjY6NF6i7BJ9W-126" value="" style="endArrow=classic;html=1;fontSize=11;exitX=0.5;exitY=1;exitDx=0;exitDy=0;" edge="1" parent="1" source="MDP2hwWKjY6NF6i7BJ9W-129">
          <mxGeometry width="50" height="50" relative="1" as="geometry">
            <mxPoint x="461" y="1060" as="sourcePoint" />
            <mxPoint x="461" y="1098" as="targetPoint" />
            <Array as="points">
              <mxPoint x="470" y="1070" />
            </Array>
          </mxGeometry>
        </mxCell>
        <mxCell id="MDP2hwWKjY6NF6i7BJ9W-127" value="" style="endArrow=classic;html=1;fontSize=11;entryX=0;entryY=1.005;entryDx=0;entryDy=0;entryPerimeter=0;exitX=0.5;exitY=0;exitDx=0;exitDy=0;" edge="1" parent="1" source="MDP2hwWKjY6NF6i7BJ9W-128" target="MDP2hwWKjY6NF6i7BJ9W-140">
          <mxGeometry width="50" height="50" relative="1" as="geometry">
            <mxPoint x="240" y="1240" as="sourcePoint" />
            <mxPoint x="330" y="1150" as="targetPoint" />
            <Array as="points">
              <mxPoint x="260" y="1190" />
            </Array>
          </mxGeometry>
        </mxCell>
        <mxCell id="MDP2hwWKjY6NF6i7BJ9W-128" value="入队位置" style="text;html=1;strokeColor=none;fillColor=none;align=center;verticalAlign=middle;whiteSpace=wrap;rounded=0;fontSize=11;" vertex="1" parent="1">
          <mxGeometry x="190" y="1230" width="60" height="20" as="geometry" />
        </mxCell>
        <mxCell id="MDP2hwWKjY6NF6i7BJ9W-129" value="出队，已发送位置" style="text;html=1;strokeColor=none;fillColor=none;align=center;verticalAlign=middle;whiteSpace=wrap;rounded=0;fontSize=11;" vertex="1" parent="1">
          <mxGeometry x="417" y="1020" width="93" height="20" as="geometry" />
        </mxCell>
        <mxCell id="MDP2hwWKjY6NF6i7BJ9W-130" value="" style="endArrow=classic;html=1;strokeColor=#EA6B66;fontSize=11;" edge="1" parent="1">
          <mxGeometry width="50" height="50" relative="1" as="geometry">
            <mxPoint x="572" y="1039" as="sourcePoint" />
            <mxPoint x="561" y="1100" as="targetPoint" />
            <Array as="points">
              <mxPoint x="552" y="1069" />
            </Array>
          </mxGeometry>
        </mxCell>
        <mxCell id="MDP2hwWKjY6NF6i7BJ9W-131" value="TCP ACK应答位置" style="text;html=1;strokeColor=none;fillColor=none;align=center;verticalAlign=middle;whiteSpace=wrap;rounded=0;fontSize=11;" vertex="1" parent="1">
          <mxGeometry x="540" y="1020" width="100" height="20" as="geometry" />
        </mxCell>
        <mxCell id="MDP2hwWKjY6NF6i7BJ9W-132" value="&lt;h1&gt;&lt;font style=&quot;font-size: 12px&quot;&gt;线路保护说明：&lt;/font&gt;&lt;/h1&gt;&lt;p&gt;如果网络中断，已出队并传入TCP流的数据可能并没有被接收到，下次连接后从应答位置再次重新发送数据。&lt;/p&gt;" style="text;html=1;strokeColor=none;fillColor=none;spacing=5;spacingTop=-20;whiteSpace=wrap;overflow=hidden;rounded=0;fontSize=11;" vertex="1" parent="1">
          <mxGeometry x="120" y="1010" width="190" height="90" as="geometry" />
        </mxCell>
        <mxCell id="MDP2hwWKjY6NF6i7BJ9W-133" value="中位机和上位机的通讯方式和数据格式简单介绍" style="text;html=1;strokeColor=none;fillColor=none;align=center;verticalAlign=middle;whiteSpace=wrap;rounded=0;fontSize=28;" vertex="1" parent="1">
          <mxGeometry x="520" y="36" width="690" height="20" as="geometry" />
        </mxCell>
        <mxCell id="MDP2hwWKjY6NF6i7BJ9W-134" value="" style="rounded=0;whiteSpace=wrap;html=1;fontSize=11;fillColor=#D5E8D4;strokeColor=#666666;fontColor=#333333;" vertex="1" parent="1">
          <mxGeometry x="310" y="1100" width="40" height="40" as="geometry" />
        </mxCell>
        <mxCell id="MDP2hwWKjY6NF6i7BJ9W-135" value="" style="rounded=0;whiteSpace=wrap;html=1;fontSize=11;fillColor=#D5E8D4;strokeColor=#666666;fontColor=#333333;" vertex="1" parent="1">
          <mxGeometry x="350" y="1100" width="40" height="40" as="geometry" />
        </mxCell>
        <mxCell id="MDP2hwWKjY6NF6i7BJ9W-136" value="" style="rounded=0;whiteSpace=wrap;html=1;fontSize=11;fillColor=#D5E8D4;strokeColor=#666666;fontColor=#333333;" vertex="1" parent="1">
          <mxGeometry x="390" y="1100" width="40" height="40" as="geometry" />
        </mxCell>
        <mxCell id="MDP2hwWKjY6NF6i7BJ9W-137" value="" style="rounded=0;whiteSpace=wrap;html=1;fontSize=11;fillColor=#D5E8D4;strokeColor=#666666;fontColor=#333333;" vertex="1" parent="1">
          <mxGeometry x="430" y="1100" width="40" height="40" as="geometry" />
        </mxCell>
        <mxCell id="MDP2hwWKjY6NF6i7BJ9W-138" value="" style="rounded=0;whiteSpace=wrap;html=1;fontSize=11;fillColor=#D5E8D4;strokeColor=#666666;fontColor=#333333;" vertex="1" parent="1">
          <mxGeometry x="470" y="1100" width="40" height="40" as="geometry" />
        </mxCell>
        <mxCell id="MDP2hwWKjY6NF6i7BJ9W-139" value="" style="rounded=0;whiteSpace=wrap;html=1;fontSize=11;fillColor=#D5E8D4;strokeColor=#666666;fontColor=#333333;" vertex="1" parent="1">
          <mxGeometry x="510" y="1100" width="40" height="40" as="geometry" />
        </mxCell>
        <mxCell id="MDP2hwWKjY6NF6i7BJ9W-140" value="" style="rounded=0;whiteSpace=wrap;html=1;fontSize=11;fillColor=#D5E8D4;strokeColor=#666666;fontColor=#333333;" vertex="1" parent="1">
          <mxGeometry x="270" y="1100" width="40" height="40" as="geometry" />
        </mxCell>
        <mxCell id="MDP2hwWKjY6NF6i7BJ9W-141" value="" style="rounded=0;whiteSpace=wrap;html=1;fontSize=11;" vertex="1" parent="1">
          <mxGeometry x="320" y="1215" width="210" height="35" as="geometry" />
        </mxCell>
        <mxCell id="MDP2hwWKjY6NF6i7BJ9W-142" value="帧起始引导符" style="rounded=0;whiteSpace=wrap;html=1;fontSize=11;" vertex="1" parent="1">
          <mxGeometry x="320" y="1215" width="40" height="35" as="geometry" />
        </mxCell>
        <mxCell id="MDP2hwWKjY6NF6i7BJ9W-143" value="帧长度" style="rounded=0;whiteSpace=wrap;html=1;fontSize=11;" vertex="1" parent="1">
          <mxGeometry x="360" y="1215" width="40" height="35" as="geometry" />
        </mxCell>
        <mxCell id="MDP2hwWKjY6NF6i7BJ9W-144" value="数据类型" style="rounded=0;whiteSpace=wrap;html=1;fontSize=11;" vertex="1" parent="1">
          <mxGeometry x="400" y="1215" width="40" height="35" as="geometry" />
        </mxCell>
        <mxCell id="MDP2hwWKjY6NF6i7BJ9W-145" value="数据......." style="rounded=0;whiteSpace=wrap;html=1;fontSize=11;" vertex="1" parent="1">
          <mxGeometry x="440" y="1215" width="90" height="35" as="geometry" />
        </mxCell>
        <mxCell id="MDP2hwWKjY6NF6i7BJ9W-146" value="" style="endArrow=none;html=1;strokeColor=#4D4D4D;fontSize=11;entryX=0.99;entryY=1.001;entryDx=0;entryDy=0;entryPerimeter=0;exitX=0;exitY=0.038;exitDx=0;exitDy=0;exitPerimeter=0;" edge="1" parent="1" source="MDP2hwWKjY6NF6i7BJ9W-142" target="MDP2hwWKjY6NF6i7BJ9W-140">
          <mxGeometry width="50" height="50" relative="1" as="geometry">
            <mxPoint x="300" y="1210" as="sourcePoint" />
            <mxPoint x="350" y="1160" as="targetPoint" />
          </mxGeometry>
        </mxCell>
        <mxCell id="MDP2hwWKjY6NF6i7BJ9W-147" value="" style="endArrow=none;html=1;strokeColor=#4D4D4D;fontSize=11;exitX=1.004;exitY=-0.01;exitDx=0;exitDy=0;exitPerimeter=0;" edge="1" parent="1" source="MDP2hwWKjY6NF6i7BJ9W-145">
          <mxGeometry width="50" height="50" relative="1" as="geometry">
            <mxPoint x="340" y="1210" as="sourcePoint" />
            <mxPoint x="349.9999999999998" y="1140" as="targetPoint" />
          </mxGeometry>
        </mxCell>
        <mxCell id="MDP2hwWKjY6NF6i7BJ9W-148" value="数据保护与传输模块，10002端口" style="text;html=1;strokeColor=none;fillColor=none;align=center;verticalAlign=middle;whiteSpace=wrap;rounded=0;fontSize=16;fontStyle=1" vertex="1" parent="1">
          <mxGeometry x="370" y="370" width="380" height="20" as="geometry" />
        </mxCell>
        <mxCell id="MDP2hwWKjY6NF6i7BJ9W-149" value="传输模块，10001端口" style="text;html=1;strokeColor=none;fillColor=none;align=center;verticalAlign=middle;whiteSpace=wrap;rounded=0;fontSize=16;fontStyle=1" vertex="1" parent="1">
          <mxGeometry x="455" y="105.5" width="170" height="20" as="geometry" />
        </mxCell>
        <mxCell id="MDP2hwWKjY6NF6i7BJ9W-150" value="工艺管理与数据创建" style="text;html=1;strokeColor=none;fillColor=none;align=center;verticalAlign=middle;whiteSpace=wrap;rounded=0;fontSize=16;fontStyle=1" vertex="1" parent="1">
          <mxGeometry x="69" y="110" width="170" height="20" as="geometry" />
        </mxCell>
        <mxCell id="MDP2hwWKjY6NF6i7BJ9W-151" value="" style="rounded=0;whiteSpace=wrap;html=1;fontSize=11;strokeColor=#666666;fillColor=#FFFFFF;" vertex="1" parent="1">
          <mxGeometry x="550" y="1100" width="40" height="40" as="geometry" />
        </mxCell>
        <mxCell id="MDP2hwWKjY6NF6i7BJ9W-152" value="" style="rounded=0;whiteSpace=wrap;html=1;fontSize=11;fillColor=#D5E8D4;strokeColor=none;fontColor=#333333;" vertex="1" parent="1">
          <mxGeometry x="551" y="1101" width="10" height="39" as="geometry" />
        </mxCell>
        <mxCell id="MDP2hwWKjY6NF6i7BJ9W-153" value="" style="rounded=0;whiteSpace=wrap;html=1;fontSize=11;strokeColor=#666666;fillColor=#FFFFFF;" vertex="1" parent="1">
          <mxGeometry x="590" y="1100" width="40" height="40" as="geometry" />
        </mxCell>
        <mxCell id="MDP2hwWKjY6NF6i7BJ9W-154" value="" style="rounded=0;whiteSpace=wrap;html=1;fontSize=11;strokeColor=#666666;fillColor=#FFFFFF;" vertex="1" parent="1">
          <mxGeometry x="630" y="1100" width="40" height="40" as="geometry" />
        </mxCell>
        <mxCell id="MDP2hwWKjY6NF6i7BJ9W-155" value="" style="rounded=0;whiteSpace=wrap;html=1;fontSize=11;strokeColor=#666666;fillColor=#FFFFFF;" vertex="1" parent="1">
          <mxGeometry x="670.5" y="1100" width="40" height="40" as="geometry" />
        </mxCell>
        <mxCell id="MDP2hwWKjY6NF6i7BJ9W-156" value="以太网" style="text;html=1;strokeColor=none;fillColor=none;align=center;verticalAlign=middle;whiteSpace=wrap;rounded=0;fontSize=19;" vertex="1" parent="1">
          <mxGeometry x="900" y="465" width="60" height="20" as="geometry" />
        </mxCell>
        <mxCell id="MDP2hwWKjY6NF6i7BJ9W-157" value="设备实例" style="text;html=1;strokeColor=none;fillColor=none;align=center;verticalAlign=middle;whiteSpace=wrap;rounded=0;fontSize=19;" vertex="1" parent="1">
          <mxGeometry x="1060" y="350" width="95" height="20" as="geometry" />
        </mxCell>
        <mxCell id="MDP2hwWKjY6NF6i7BJ9W-158" value="" style="rounded=0;whiteSpace=wrap;html=1;fontSize=19;" vertex="1" parent="1">
          <mxGeometry x="1230" y="425" width="140" height="105" as="geometry" />
        </mxCell>
        <mxCell id="MDP2hwWKjY6NF6i7BJ9W-159" value="通道影子" style="rounded=0;whiteSpace=wrap;html=1;strokeColor=#666666;fillColor=#D5E8D4;fontSize=19;" vertex="1" parent="1">
          <mxGeometry x="1240" y="475" width="90" height="45" as="geometry" />
        </mxCell>
        <mxCell id="MDP2hwWKjY6NF6i7BJ9W-160" value="通道影子" style="rounded=0;whiteSpace=wrap;html=1;strokeColor=#666666;fillColor=#D5E8D4;fontSize=19;" vertex="1" parent="1">
          <mxGeometry x="1250" y="465" width="90" height="45" as="geometry" />
        </mxCell>
        <mxCell id="MDP2hwWKjY6NF6i7BJ9W-161" value="通道影子" style="rounded=0;whiteSpace=wrap;html=1;strokeColor=#666666;fillColor=#D5E8D4;fontSize=19;" vertex="1" parent="1">
          <mxGeometry x="1260" y="452.5" width="90" height="45" as="geometry" />
        </mxCell>
        <mxCell id="MDP2hwWKjY6NF6i7BJ9W-162" value="通道影子" style="rounded=0;whiteSpace=wrap;html=1;strokeColor=#666666;fillColor=#D5E8D4;fontSize=14;" vertex="1" parent="1">
          <mxGeometry x="1270" y="442.5" width="90" height="45" as="geometry" />
        </mxCell>
        <mxCell id="MDP2hwWKjY6NF6i7BJ9W-163" value="" style="rounded=0;whiteSpace=wrap;html=1;fontSize=19;" vertex="1" parent="1">
          <mxGeometry x="1230" y="545" width="140" height="105" as="geometry" />
        </mxCell>
        <mxCell id="MDP2hwWKjY6NF6i7BJ9W-164" value="通道影子" style="rounded=0;whiteSpace=wrap;html=1;strokeColor=#666666;fillColor=#D5E8D4;fontSize=19;" vertex="1" parent="1">
          <mxGeometry x="1240" y="595" width="90" height="45" as="geometry" />
        </mxCell>
        <mxCell id="MDP2hwWKjY6NF6i7BJ9W-165" value="通道影子" style="rounded=0;whiteSpace=wrap;html=1;strokeColor=#666666;fillColor=#D5E8D4;fontSize=19;" vertex="1" parent="1">
          <mxGeometry x="1250" y="585" width="90" height="45" as="geometry" />
        </mxCell>
        <mxCell id="MDP2hwWKjY6NF6i7BJ9W-166" value="通道影子" style="rounded=0;whiteSpace=wrap;html=1;strokeColor=#666666;fillColor=#D5E8D4;fontSize=19;" vertex="1" parent="1">
          <mxGeometry x="1260" y="572.5" width="90" height="45" as="geometry" />
        </mxCell>
        <mxCell id="MDP2hwWKjY6NF6i7BJ9W-167" value="通道影子" style="rounded=0;whiteSpace=wrap;html=1;strokeColor=#666666;fillColor=#D5E8D4;fontSize=15;" vertex="1" parent="1">
          <mxGeometry x="1270" y="562.5" width="90" height="45" as="geometry" />
        </mxCell>
        <mxCell id="MDP2hwWKjY6NF6i7BJ9W-168" value="" style="rounded=0;whiteSpace=wrap;html=1;fontSize=19;" vertex="1" parent="1">
          <mxGeometry x="1070" y="423" width="110" height="237" as="geometry" />
        </mxCell>
        <mxCell id="MDP2hwWKjY6NF6i7BJ9W-169" value="接收队列" style="shape=cylinder;whiteSpace=wrap;html=1;boundedLbl=1;backgroundOutline=1;fontSize=12;" vertex="1" parent="1">
          <mxGeometry x="1095" y="444" width="60" height="58" as="geometry" />
        </mxCell>
        <mxCell id="MDP2hwWKjY6NF6i7BJ9W-170" value="库位实例" style="text;html=1;strokeColor=none;fillColor=none;align=center;verticalAlign=middle;whiteSpace=wrap;rounded=0;fontSize=10;" vertex="1" parent="1">
          <mxGeometry x="1230" y="410" width="55" height="11" as="geometry" />
        </mxCell>
        <mxCell id="MDP2hwWKjY6NF6i7BJ9W-171" value="库位实例" style="text;html=1;strokeColor=none;fillColor=none;align=center;verticalAlign=middle;whiteSpace=wrap;rounded=0;fontSize=10;" vertex="1" parent="1">
          <mxGeometry x="1230" y="652" width="55" height="11" as="geometry" />
        </mxCell>
        <mxCell id="MDP2hwWKjY6NF6i7BJ9W-172" value="&lt;h1 style=&quot;font-size: 13px&quot;&gt;异步接收模块&lt;/h1&gt;&lt;div style=&quot;font-size: 11px&quot;&gt;&lt;font style=&quot;font-size: 11px&quot;&gt;全异步接收，能引发数据包接收到事件，零拷贝。&lt;/font&gt;&lt;/div&gt;&lt;div style=&quot;font-size: 11px&quot;&gt;&lt;font style=&quot;font-size: 11px&quot;&gt;也可以不订阅事件，通过调大队列容量，慢慢消耗数据，正常情况，队列基本为空&lt;/font&gt;&lt;/div&gt;" style="text;html=1;strokeColor=none;fillColor=none;spacing=5;spacingTop=-20;whiteSpace=wrap;overflow=hidden;rounded=0;fontSize=12;" vertex="1" parent="1">
          <mxGeometry x="1070" y="512.5" width="110" height="120" as="geometry" />
        </mxCell>
        <mxCell id="MDP2hwWKjY6NF6i7BJ9W-173" value="" style="endArrow=classic;html=1;strokeColor=#4D4D4D;fontSize=12;" edge="1" parent="1" target="MDP2hwWKjY6NF6i7BJ9W-172">
          <mxGeometry width="50" height="50" relative="1" as="geometry">
            <mxPoint x="1138.0153846153848" y="689.9999999999998" as="sourcePoint" />
            <mxPoint x="1090" y="730" as="targetPoint" />
          </mxGeometry>
        </mxCell>
        <mxCell id="MDP2hwWKjY6NF6i7BJ9W-174" value="&lt;h1&gt;&lt;font style=&quot;font-size: 13px&quot;&gt;Note：&lt;/font&gt;&lt;/h1&gt;&lt;p&gt;&lt;span style=&quot;text-align: center&quot;&gt;根据数据类型更新对应的影子，触发存盘，&lt;/span&gt;&lt;/p&gt;&lt;p&gt;&lt;span style=&quot;text-align: center&quot;&gt;按通道存文件：&lt;/span&gt;&lt;/p&gt;&lt;p&gt;&lt;span style=&quot;text-align: center&quot;&gt;各通道按各自的足量或超时触发。根据过滤策略过滤数据。&lt;/span&gt;&lt;/p&gt;&lt;p&gt;&lt;span style=&quot;text-align: center&quot;&gt;按库位存文件：&lt;font color=&quot;#ff3333&quot;&gt;NEW&lt;/font&gt;&lt;/span&gt;&lt;/p&gt;&lt;p&gt;&lt;span style=&quot;text-align: center&quot;&gt;收到前柜数据时触发，将此时的各通道数据整合后写入文件或着足量再写入文件，&lt;font color=&quot;#ff3333&quot;&gt;无法过滤数据，通道不独立&lt;/font&gt;&lt;/span&gt;&lt;span style=&quot;text-align: center&quot;&gt;&lt;br&gt;&lt;/span&gt;&lt;/p&gt;&lt;p style=&quot;text-align: center&quot;&gt;&lt;br&gt;&lt;/p&gt;" style="text;html=1;strokeColor=none;fillColor=none;spacing=5;spacingTop=-20;whiteSpace=wrap;overflow=hidden;rounded=0;fontSize=12;" vertex="1" parent="1">
          <mxGeometry x="1065" y="675" width="255" height="225" as="geometry" />
        </mxCell>
        <mxCell id="MDP2hwWKjY6NF6i7BJ9W-175" value="&lt;font style=&quot;font-size: 22px&quot;&gt;监控UI&lt;/font&gt;&lt;br&gt;&lt;font style=&quot;font-size: 15px&quot;&gt;人工控制&lt;/font&gt;" style="rounded=0;whiteSpace=wrap;html=1;fontSize=28;strokeColor=#009900;" vertex="1" parent="1">
          <mxGeometry x="1480" y="475" width="120" height="60" as="geometry" />
        </mxCell>
        <mxCell id="MDP2hwWKjY6NF6i7BJ9W-176" value="&lt;h1 style=&quot;font-size: 13px&quot;&gt;从影子更新监控UI&lt;/h1&gt;&lt;div style=&quot;font-size: 12px&quot;&gt;以固定频率更新可见的UI，更新通道视图UI或者库位视图UI，或将实时状态共享给第三方&lt;/div&gt;" style="text;html=1;strokeColor=none;fillColor=none;spacing=5;spacingTop=-20;whiteSpace=wrap;overflow=hidden;rounded=0;fontSize=28;" vertex="1" parent="1">
          <mxGeometry x="1440" y="359.5" width="148" height="79" as="geometry" />
        </mxCell>
        <mxCell id="MDP2hwWKjY6NF6i7BJ9W-177" value="硬盘" style="shape=cylinder;whiteSpace=wrap;html=1;boundedLbl=1;backgroundOutline=1;strokeColor=#6c8ebf;fillColor=#dae8fc;fontSize=28;" vertex="1" parent="1">
          <mxGeometry x="1360" y="725" width="70" height="90" as="geometry" />
        </mxCell>
        <mxCell id="MDP2hwWKjY6NF6i7BJ9W-178" value="" style="curved=1;endArrow=classic;html=1;strokeColor=#4D4D4D;fontSize=28;exitX=0.915;exitY=1.015;exitDx=0;exitDy=0;exitPerimeter=0;" edge="1" parent="1" source="MDP2hwWKjY6NF6i7BJ9W-98" target="MDP2hwWKjY6NF6i7BJ9W-177">
          <mxGeometry width="50" height="50" relative="1" as="geometry">
            <mxPoint x="1410" y="700" as="sourcePoint" />
            <mxPoint x="1460" y="650" as="targetPoint" />
            <Array as="points">
              <mxPoint x="1440" y="710" />
              <mxPoint x="1390" y="650" />
            </Array>
          </mxGeometry>
        </mxCell>
        <mxCell id="MDP2hwWKjY6NF6i7BJ9W-179" value="数据分析UI" style="rounded=0;whiteSpace=wrap;html=1;fontSize=21;" vertex="1" parent="1">
          <mxGeometry x="1480" y="675" width="120" height="60" as="geometry" />
        </mxCell>
        <mxCell id="MDP2hwWKjY6NF6i7BJ9W-180" value="" style="endArrow=classic;html=1;strokeColor=#4D4D4D;fontSize=21;entryX=1;entryY=0.7;entryDx=0;entryDy=0;exitX=0.642;exitY=1;exitDx=0;exitDy=0;exitPerimeter=0;" edge="1" parent="1" source="MDP2hwWKjY6NF6i7BJ9W-179" target="MDP2hwWKjY6NF6i7BJ9W-177">
          <mxGeometry width="50" height="50" relative="1" as="geometry">
            <mxPoint x="1500" y="830" as="sourcePoint" />
            <mxPoint x="1550" y="780" as="targetPoint" />
            <Array as="points">
              <mxPoint x="1540" y="760" />
              <mxPoint x="1500" y="780" />
              <mxPoint x="1470" y="790" />
            </Array>
          </mxGeometry>
        </mxCell>
        <mxCell id="MDP2hwWKjY6NF6i7BJ9W-181" value="从磁盘加载数据并展示数据" style="text;html=1;strokeColor=none;fillColor=none;align=center;verticalAlign=middle;whiteSpace=wrap;rounded=0;fontSize=12;" vertex="1" parent="1">
          <mxGeometry x="1480" y="785" width="95" height="20" as="geometry" />
        </mxCell>
        <mxCell id="MDP2hwWKjY6NF6i7BJ9W-182" value="通道实例" style="text;html=1;strokeColor=none;fillColor=none;align=center;verticalAlign=middle;whiteSpace=wrap;rounded=0;fontSize=8;" vertex="1" parent="1">
          <mxGeometry x="1325" y="430" width="35" height="11" as="geometry" />
        </mxCell>
        <mxCell id="MDP2hwWKjY6NF6i7BJ9W-183" value="第三方对接与自动控制" style="rounded=0;whiteSpace=wrap;html=1;fontSize=12;fontStyle=0" vertex="1" parent="1">
          <mxGeometry x="1480" y="560" width="120" height="59" as="geometry" />
        </mxCell>
        <mxCell id="MDP2hwWKjY6NF6i7BJ9W-184" value="" style="shape=flexArrow;endArrow=classic;startArrow=classic;html=1;strokeColor=#4D4D4D;fontSize=10;exitX=1;exitY=0.445;exitDx=0;exitDy=0;exitPerimeter=0;entryX=0;entryY=0.5;entryDx=0;entryDy=0;width=8.333333333333334;endSize=4.525;endWidth=19.72222222222222;startWidth=19.72222222222222;startSize=4.525;" edge="1" parent="1" source="MDP2hwWKjY6NF6i7BJ9W-97" target="MDP2hwWKjY6NF6i7BJ9W-175">
          <mxGeometry width="50" height="50" relative="1" as="geometry">
            <mxPoint x="1430" y="550" as="sourcePoint" />
            <mxPoint x="1480" y="500" as="targetPoint" />
          </mxGeometry>
        </mxCell>
        <mxCell id="MDP2hwWKjY6NF6i7BJ9W-185" value="" style="shape=flexArrow;endArrow=classic;startArrow=classic;html=1;strokeColor=#4D4D4D;fontSize=10;exitX=1;exitY=0.445;exitDx=0;exitDy=0;exitPerimeter=0;entryX=0;entryY=0.5;entryDx=0;entryDy=0;startWidth=23.6;startSize=4.375;endWidth=23.6;endSize=4.375;" edge="1" parent="1">
          <mxGeometry width="50" height="50" relative="1" as="geometry">
            <mxPoint x="1410" y="590.21" as="sourcePoint" />
            <mxPoint x="1480" y="591.5000000000002" as="targetPoint" />
          </mxGeometry>
        </mxCell>
        <mxCell id="MDP2hwWKjY6NF6i7BJ9W-186" value="" style="shape=flexArrow;endArrow=classic;startArrow=classic;html=1;strokeColor=#4D4D4D;fontSize=10;" edge="1" parent="1">
          <mxGeometry width="50" height="50" relative="1" as="geometry">
            <mxPoint x="830" y="489.9999999999998" as="sourcePoint" />
            <mxPoint x="1010" y="489.9999999999998" as="targetPoint" />
          </mxGeometry>
        </mxCell>
        <mxCell id="MDP2hwWKjY6NF6i7BJ9W-187" value="当前后台软件设备与数据部分" style="text;html=1;strokeColor=none;fillColor=none;align=center;verticalAlign=middle;whiteSpace=wrap;rounded=0;fontSize=16;fontStyle=1" vertex="1" parent="1">
          <mxGeometry x="1215" y="290" width="210" height="20" as="geometry" />
        </mxCell>
        <mxCell id="MDP2hwWKjY6NF6i7BJ9W-188" value="调试后台与校准软件" style="rounded=0;whiteSpace=wrap;html=1;strokeColor=#000000;fillColor=none;fontSize=20;" vertex="1" parent="1">
          <mxGeometry x="1017.5" y="155.5" width="215" height="70" as="geometry" />
        </mxCell>
        <mxCell id="MDP2hwWKjY6NF6i7BJ9W-189" value="以太网" style="text;html=1;strokeColor=none;fillColor=none;align=center;verticalAlign=middle;whiteSpace=wrap;rounded=0;fontSize=19;" vertex="1" parent="1">
          <mxGeometry x="895" y="170.5" width="60" height="20" as="geometry" />
        </mxCell>
        <mxCell id="MDP2hwWKjY6NF6i7BJ9W-190" value="" style="shape=flexArrow;endArrow=classic;startArrow=classic;html=1;strokeColor=#4D4D4D;fontSize=10;" edge="1" parent="1">
          <mxGeometry width="50" height="50" relative="1" as="geometry">
            <mxPoint x="825" y="195.5" as="sourcePoint" />
            <mxPoint x="1005" y="195.5" as="targetPoint" />
          </mxGeometry>
        </mxCell>
        <mxCell id="MDP2hwWKjY6NF6i7BJ9W-191" value="." style="text;html=1;strokeColor=none;fillColor=none;align=center;verticalAlign=middle;whiteSpace=wrap;rounded=0;fontSize=20;" vertex="1" parent="1">
          <mxGeometry y="1310" width="30" height="20" as="geometry" />
        </mxCell>
        <mxCell id="MDP2hwWKjY6NF6i7BJ9W-192" value="." style="text;html=1;strokeColor=none;fillColor=none;align=center;verticalAlign=middle;whiteSpace=wrap;rounded=0;fontSize=20;" vertex="1" parent="1">
          <mxGeometry x="1623.3333333333333" y="1277" width="30" height="20" as="geometry" />
        </mxCell>
      </root>
    </mxGraphModel>
  </diagram>
</mxfile>
